<svg width="755" height="153" viewBox="0 0 755 153" fill="none" xmlns="http://www.w3.org/2000/svg">
<g clip-path="url(#clip0_234_1158)">
<mask id="mask0_234_1158" style="mask-type:luminance" maskUnits="userSpaceOnUse" x="55" y="0" width="52" height="132">
<path d="M55.9487 27.0773V62.7275L62.9619 65.7208V23.1825L55.9487 27.0773ZM66.2741 21.8193V66.9051L73.2843 69.5445V17.9236L66.2741 21.8193ZM77.3771 15.9737V70.8758L84.4243 73.4383L84.3923 12.078L77.3771 15.9737ZM88.675 10.1041V131.683H95.6892V5.65071L88.675 10.1041ZM99.9759 4.62131V130.711H106.987V0L99.9759 4.62131Z" fill="white"/>
</mask>
<g mask="url(#mask0_234_1158)">
<path d="M106.987 0H55.9487V131.684H106.987V0Z" fill="url(#paint0_linear_234_1158)"/>
</g>
<mask id="mask1_234_1158" style="mask-type:luminance" maskUnits="userSpaceOnUse" x="26" y="76" width="8" height="68">
<path d="M26.106 80.4843V143.599L33.1152 141.65V76.9763L26.106 80.4843Z" fill="white"/>
</mask>
<g mask="url(#mask1_234_1158)">
<path d="M33.1152 76.9763H26.106V143.598H33.1152V76.9763Z" fill="url(#paint1_linear_234_1158)"/>
</g>
<mask id="mask2_234_1158" style="mask-type:luminance" maskUnits="userSpaceOnUse" x="36" y="71" width="8" height="71">
<path d="M36.2354 75.0424V141.884L43.2446 140.599V71.3286L36.2354 75.0424Z" fill="white"/>
</mask>
<g mask="url(#mask2_234_1158)">
<path d="M43.2446 71.3286H36.2354V141.884H43.2446V71.3286Z" fill="url(#paint2_linear_234_1158)"/>
</g>
<mask id="mask3_234_1158" style="mask-type:luminance" maskUnits="userSpaceOnUse" x="47" y="65" width="8" height="75">
<path d="M47.1436 69.4766V139.781L54.1558 139.119V65.4839L47.1436 69.4766Z" fill="white"/>
</mask>
<g mask="url(#mask3_234_1158)">
<path d="M54.1558 65.4839H47.1436V139.781H54.1558V65.4839Z" fill="url(#paint3_linear_234_1158)"/>
</g>
<mask id="mask4_234_1158" style="mask-type:luminance" maskUnits="userSpaceOnUse" x="201" y="82" width="8" height="62">
<path d="M201.038 141.4L208.051 143.168V85.906L201.038 82.7239V141.4Z" fill="white"/>
</mask>
<g mask="url(#mask4_234_1158)">
<path d="M208.051 82.7239H201.038V143.168H208.051V82.7239Z" fill="url(#paint4_linear_234_1158)"/>
</g>
<mask id="mask5_234_1158" style="mask-type:luminance" maskUnits="userSpaceOnUse" x="190" y="77" width="8" height="63">
<path d="M190.909 138.776L197.923 139.923V80.3832L190.909 77.0762V138.776Z" fill="white"/>
</mask>
<g mask="url(#mask5_234_1158)">
<path d="M197.923 77.0762H190.909V139.923H197.923V77.0762Z" fill="url(#paint5_linear_234_1158)"/>
</g>
<mask id="mask6_234_1158" style="mask-type:luminance" maskUnits="userSpaceOnUse" x="179" y="71" width="9" height="69">
<path d="M179.998 138.867L187.011 139.474V74.8983L179.998 71.2305V138.867Z" fill="white"/>
</mask>
<g mask="url(#mask6_234_1158)">
<path d="M187.011 71.2305H179.998V139.473H187.011V71.2305Z" fill="url(#paint6_linear_234_1158)"/>
</g>
<mask id="mask7_234_1158" style="mask-type:luminance" maskUnits="userSpaceOnUse" x="161" y="24" width="8" height="113">
<path d="M161.101 136.195H168.118V28.3335L161.101 24.3818V136.195Z" fill="white"/>
</mask>
<g mask="url(#mask7_234_1158)">
<path d="M168.118 24.3818H161.101V136.195H168.118V24.3818Z" fill="url(#paint7_linear_234_1158)"/>
</g>
<mask id="mask8_234_1158" style="mask-type:luminance" maskUnits="userSpaceOnUse" x="149" y="17" width="8" height="118">
<path d="M149.804 134.443H156.822V22.0712L149.804 17.9556V134.443Z" fill="white"/>
</mask>
<g mask="url(#mask8_234_1158)">
<path d="M156.822 17.9556H149.804V134.444H156.822V17.9556Z" fill="url(#paint8_linear_234_1158)"/>
</g>
<mask id="mask9_234_1158" style="mask-type:luminance" maskUnits="userSpaceOnUse" x="138" y="12" width="8" height="122">
<path d="M138.508 133.468H145.52V16.5864L138.508 12.3049V133.468Z" fill="white"/>
</mask>
<g mask="url(#mask9_234_1158)">
<path d="M145.52 12.3049H138.508V133.468H145.52V12.3049Z" fill="url(#paint9_linear_234_1158)"/>
</g>
<mask id="mask10_234_1158" style="mask-type:luminance" maskUnits="userSpaceOnUse" x="116" y="67" width="8" height="67">
<path d="M116.403 71.3285V133.468H123.411V67.8215L116.403 71.3285Z" fill="white"/>
</mask>
<g mask="url(#mask10_234_1158)">
<path d="M123.411 67.8215H116.403V133.468H123.411V67.8215Z" fill="url(#paint10_linear_234_1158)"/>
</g>
<mask id="mask11_234_1158" style="mask-type:luminance" maskUnits="userSpaceOnUse" x="126" y="62" width="8" height="72">
<path d="M126.532 65.8867V132.729L133.545 133.468V62.1738L126.532 65.8867Z" fill="white"/>
</mask>
<g mask="url(#mask11_234_1158)">
<path d="M133.545 62.1738H126.532V133.468H133.545V62.1738Z" fill="url(#paint11_linear_234_1158)"/>
</g>
<mask id="mask12_234_1158" style="mask-type:luminance" maskUnits="userSpaceOnUse" x="0" y="136" width="238" height="17">
<path d="M118.484 136.26C83.4868 136.261 42.9607 140.063 0 151.391C0 151.536 13.1729 149.556 35.2719 147.575C78.8623 143.668 157.191 139.763 237.663 152.171C237.663 151.882 189.42 136.261 118.509 136.261C118.5 136.26 118.493 136.26 118.484 136.26Z" fill="white"/>
</mask>
<g mask="url(#mask12_234_1158)">
<path d="M237.663 136.26H0V152.17H237.663V136.26Z" fill="url(#paint12_linear_234_1158)"/>
</g>
<path d="M337.554 47.3464V50.1937C333.02 50.1937 331.86 51.5649 331.86 55.2538V75.0773C323.53 83.7222 306.026 84.2509 295.06 84.2509C273.761 84.2509 254.782 66.5362 254.782 44.3961C254.782 22.253 273.761 4.53931 295.06 4.53931C303.813 4.53931 309.717 6.22633 314.146 8.01728C318.153 9.59936 321.843 11.2864 324.795 11.2864C326.167 11.2864 326.799 9.59936 327.959 6.54214H330.806V31.7415H328.275C320.579 17.1899 311.51 7.38665 299.278 7.38665C276.714 7.49059 270.914 24.5717 271.125 44.3951C271.125 61.1574 276.608 81.4016 295.06 81.4016C312.775 81.4016 317.204 77.5019 317.204 60.2089C317.204 50.9313 316.149 50.2967 306.448 50.1927V47.3454L337.554 47.3464Z" fill="black"/>
<path d="M371.209 84.2509C354.96 84.2509 340.479 70.7368 340.479 53.8446C340.479 36.9524 354.96 23.4363 371.209 23.4363C387.379 23.4363 401.858 36.9514 401.858 53.8446C401.858 70.7358 387.379 84.2509 371.209 84.2509ZM371.209 25.609C357.132 25.609 352.948 41.054 352.948 53.8446C352.948 66.6341 357.132 82.0792 371.209 82.0792C385.206 82.0792 389.389 66.6341 389.389 53.8446C389.389 41.054 385.206 25.609 371.209 25.609Z" fill="black"/>
<path d="M415.533 35.5023C415.533 28.5843 414.809 27.9437 407.327 27.8607V25.689H435.403V27.8607C427.921 27.9427 427.197 28.5843 427.197 35.5023V74.4366C427.197 81.1937 428.484 82.0782 436.689 82.0782C451.008 82.0782 456.238 79.5836 463.478 66.875L465.489 67.1159L460.742 84.2489H407.327V82.0782C414.809 81.9972 415.533 81.3536 415.533 74.4366V35.5023Z" fill="black"/>
<path d="M503.136 25.6899C519.949 25.6899 535.394 37.1922 535.394 54.9709C535.394 72.9894 522.201 84.2499 504.664 84.2499H470.798V82.0791C477.233 81.9982 477.957 81.3546 477.957 74.4376V35.5032C477.957 28.5843 477.233 27.9436 470.798 27.8617V25.6899H503.136ZM489.622 74.4366C489.461 81.3546 490.909 82.0781 499.275 82.0781C515.525 82.0781 522.926 70.253 522.926 54.9699C522.926 39.6868 513.916 27.8607 499.275 27.8607C489.942 27.8607 489.622 28.4234 489.622 30.8369V74.4366Z" fill="black"/>
<path d="M584.026 84.25C562.726 84.25 543.747 66.5373 543.747 44.3951C543.747 22.252 562.726 4.53833 584.026 4.53833C605.219 4.53833 624.199 22.252 624.199 44.3951C624.199 66.5373 605.219 84.25 584.026 84.25ZM584.026 7.38767C565.573 7.38767 560.091 27.6319 560.091 44.3951C560.091 61.1594 565.573 81.4036 584.026 81.4036C602.373 81.4036 607.855 61.1594 607.855 44.3951C607.855 27.6309 602.373 7.38767 584.026 7.38767Z" fill="black"/>
<path d="M637.449 73.741C637.449 79.3448 641.342 81.0578 646.48 81.0578V83.1606H626.861V81.0578C631.766 80.747 634.491 78.4123 634.491 73.741V31.3157C634.491 28.8252 628.963 28.7472 627.25 28.5893V26.4885H648.193L684.703 67.9014V35.909C684.703 29.8356 682.289 28.5903 675.907 28.5903V26.4895H694.98V28.5903C689.452 28.5903 687.661 29.6037 687.661 35.909V84.2509H684.548L637.682 31.7824H637.449V73.741Z" fill="black"/>
<path d="M708.056 37.0753C708.056 30.3812 707.355 29.7596 702.294 29.6816V27.5789H747.759L753.677 42.4472L752.275 42.9929C745.19 34.1171 740.52 29.6816 732.111 29.6816H719.344V53.9685H723.86C731.723 53.9685 739.74 51.4 740.598 42.5262H742.466V68.9148H740.599C739.741 60.1189 735.538 56.0713 723.861 56.0713H719.345V78.3343C719.345 81.3696 719.579 82.1491 722.303 82.1491H730.478C743.4 82.1491 746.048 77.9456 753.287 67.8254L755 68.7589L750.64 84.2499H702.295V82.1491C707.356 82.0712 708.057 81.4475 708.057 74.7534L708.056 37.0753Z" fill="black"/>
<path d="M295.71 135.149V146.646C295.71 150.664 296.13 151.037 300.476 151.083V152.345H284.634V151.083C288.513 151.036 288.934 150.663 288.934 146.646V124.028C288.934 120.009 288.513 119.636 284.634 119.59V118.327H300.476V119.59C296.13 119.637 295.71 120.01 295.71 124.028V133.513H313.887V124.028C313.887 120.009 313.467 119.636 309.121 119.59V118.327H324.963V119.59C321.084 119.637 320.663 120.01 320.663 124.028V146.646C320.663 150.664 321.084 151.037 324.963 151.083V152.345H309.121V151.083C313.467 151.036 313.887 150.663 313.887 146.646V135.149H295.71Z" fill="black"/>
<path d="M346.319 152.999C336.879 152.999 328.468 145.15 328.468 135.335C328.468 125.524 336.879 117.673 346.319 117.673C355.711 117.673 364.122 125.523 364.122 135.335C364.122 145.149 355.711 152.999 346.319 152.999ZM346.319 118.935C338.14 118.935 335.71 127.909 335.71 135.335C335.71 142.768 338.14 151.738 346.319 151.738C354.45 151.738 356.88 142.767 356.88 135.335C356.88 127.908 354.45 118.935 346.319 118.935Z" fill="black"/>
<path d="M387.347 146.644C387.347 150.662 387.767 151.037 392.674 151.082V152.344H375.244V151.082C380.15 151.036 380.571 150.662 380.571 146.644V121.737C380.571 120.29 380.384 119.589 378.842 119.589C373.328 119.589 369.636 123.326 367.112 127.814L366.038 127.533L368.093 117.58H369.87C370.29 118.28 371.552 118.327 372.44 118.327H395.478C396.366 118.327 397.627 118.28 398.048 117.58H399.824L401.88 127.533L400.805 127.814C398.282 123.327 394.59 119.589 389.075 119.589C387.534 119.589 387.347 120.29 387.347 121.737V146.644Z" fill="black"/>
<path d="M408.329 124.028C408.329 120.009 407.908 119.635 404.871 119.59V118.327H432.161L435.713 127.253L434.871 127.581C430.619 122.253 427.815 119.59 422.768 119.59H415.104V134.169H417.815C422.534 134.169 427.347 132.628 427.861 127.299H428.984V143.141H427.861C427.347 137.862 424.824 135.43 417.815 135.43H415.104V148.795C415.104 150.617 415.245 151.084 416.88 151.084H421.787C429.544 151.084 431.132 148.563 435.479 142.487L436.506 143.047L433.89 152.346H404.871V151.084C407.908 151.037 408.329 150.664 408.329 146.646V124.028Z" fill="black"/>
<path d="M444.778 124.028C444.778 120.009 444.358 119.635 440.012 119.59V118.327H456.321V119.59C451.975 119.636 451.554 120.01 451.554 124.028V146.645C451.554 150.571 452.302 151.083 457.068 151.083C465.387 151.083 468.424 149.635 472.629 142.251L473.797 142.392L471.041 152.345H440.012V151.083C444.358 151.036 444.778 150.663 444.778 146.645V124.028Z" fill="black"/>
<path d="M515.85 131.083V132.346C513.607 132.626 512.579 133.467 511.598 135.383L507.952 142.485C509.261 145.522 509.962 149.354 512.346 149.354C514.308 149.354 514.962 146.878 515.617 145.429L516.504 145.569C515.709 149.261 513.233 153 509.027 153C506.177 153 504.588 151.785 503.466 149.308C501.037 151.645 498.233 153 494.681 153C489.588 153 485.475 150.616 485.475 144.963C485.475 139.262 489.822 135.57 494.962 134.027C493.045 131.131 492.111 129.356 492.111 125.805C492.111 121.551 494.822 117.673 499.402 117.673C503.887 117.673 506.831 120.289 506.831 124.915C506.831 128.279 504.682 130.242 501.878 131.69C503.747 134.775 505.85 137.673 507.252 140.989C507.812 139.59 509.962 136.131 509.962 134.775C509.962 132.626 508.746 132.767 506.97 132.345V131.082L515.85 131.083ZM497.299 150.804C499.587 150.99 501.504 149.729 502.906 148C501.363 144.682 497.905 139.262 495.803 135.477C492.999 136.365 491.27 138.889 491.27 141.832C491.27 145.895 492.858 150.101 497.299 150.804ZM504.214 124.214C504.214 121.504 502.953 118.936 499.962 118.936C498.045 118.936 497.111 120.804 497.111 122.487C497.111 125.103 499.261 128.561 501.037 130.336C503.186 128.794 504.214 126.878 504.214 124.214Z" fill="black"/>
<path d="M555.938 129.73H554.77C553.32 124.917 549.535 118.935 543.835 118.935C540.937 118.935 537.713 120.618 537.713 123.981C537.713 127.954 542.806 129.497 547.947 131.598C553.041 133.655 558.135 136.272 558.135 142.345C558.135 150.477 552.667 152.999 545.237 152.999C543.414 152.999 541.451 152.626 539.769 152.298C538.134 151.924 536.778 151.551 536.265 151.551C535.703 151.551 534.909 152.298 534.348 152.905H532.946V140.943H533.975C536.265 146.692 539.022 151.738 545.237 151.738C549.163 151.738 553.041 149.822 553.041 146.271C553.041 141.645 547.994 140.008 542.994 137.953C537.947 135.896 532.899 133.466 532.899 127.252C532.899 121.084 538.088 117.674 543.741 117.674C545.984 117.674 547.947 118.092 549.441 118.561C550.938 118.981 552.013 119.45 552.48 119.45C553.414 119.45 554.442 118.702 554.91 117.953H555.938V129.73Z" fill="black"/>
<path d="M573.788 140.429C573.788 149.448 578.741 151.738 584.257 151.738C590.424 151.738 597.294 149.214 597.294 141.877V123.981C597.294 120.337 595.845 119.588 592.013 119.588V118.327H603.461V119.588C600.145 119.588 599.069 120.196 599.069 123.981V141.693C599.069 151.037 590.237 152.999 582.807 152.999C573.929 152.999 567.013 150.057 567.013 140.429V124.029C567.013 120.851 566.031 119.589 563.041 119.589V118.328H578.555V119.589C574.209 119.636 573.788 120.009 573.788 124.029V140.429Z" fill="black"/>
<path d="M612.106 124.028C612.106 120.009 611.685 119.635 607.34 119.59V118.327H623.648V119.59C619.303 119.636 618.882 120.01 618.882 124.028V146.645C618.882 150.663 619.303 151.037 623.648 151.083V152.345H607.34V151.083C611.685 151.036 612.106 150.663 612.106 146.645V124.028Z" fill="black"/>
<path d="M647.433 146.644C647.433 150.662 647.854 151.037 652.762 151.082V152.344H635.33V151.082C640.238 151.036 640.658 150.662 640.658 146.644V121.737C640.658 120.29 640.471 119.589 638.929 119.589C633.414 119.589 629.723 123.326 627.2 127.814L626.125 127.533L628.182 117.58H629.957C630.377 118.28 631.639 118.327 632.527 118.327H655.565C656.453 118.327 657.715 118.28 658.136 117.58H659.911L661.968 127.533L660.892 127.814C658.369 123.327 654.678 119.589 649.164 119.589C647.62 119.589 647.433 120.29 647.433 121.737V146.644Z" fill="black"/>
<path d="M668.415 124.028C668.415 120.009 667.994 119.635 664.957 119.59V118.327H692.247L695.798 127.253L694.958 127.581C690.705 122.253 687.902 119.59 682.854 119.59H675.191V134.169H677.901C682.621 134.169 687.435 132.628 687.948 127.299H689.07V143.141H687.948C687.435 137.862 684.91 135.43 677.901 135.43H675.191V148.795C675.191 150.617 675.331 151.084 676.967 151.084H681.873C689.63 151.084 691.219 148.563 695.566 142.487L696.593 143.047L693.976 152.346H664.957V151.084C667.994 151.037 668.415 150.664 668.415 146.646V124.028Z" fill="black"/>
<path d="M724.68 129.73H723.511C722.062 124.917 718.277 118.935 712.576 118.935C709.679 118.935 706.454 120.618 706.454 123.981C706.454 127.954 711.548 129.497 716.688 131.598C721.782 133.655 726.876 136.272 726.876 142.345C726.876 150.477 721.408 152.999 713.978 152.999C712.155 152.999 710.192 152.626 708.51 152.298C706.875 151.924 705.52 151.551 705.006 151.551C704.445 151.551 703.651 152.298 703.089 152.905H701.688V140.943H702.717C705.006 146.692 707.763 151.738 713.978 151.738C717.904 151.738 721.782 149.822 721.782 146.271C721.782 141.645 716.735 140.008 711.736 137.953C706.688 135.896 701.641 133.466 701.641 127.252C701.641 121.084 706.828 117.674 712.482 117.674C714.726 117.674 716.688 118.092 718.183 118.561C719.679 118.981 720.754 119.45 721.222 119.45C722.155 119.45 723.183 118.702 723.651 117.953H724.68V129.73Z" fill="black"/>
</g>
<defs>
<linearGradient id="paint0_linear_234_1158" x1="81.54" y1="-7.61798" x2="81.54" y2="139.632" gradientUnits="userSpaceOnUse">
<stop stop-color="#F4D13E"/>
<stop offset="0.1878" stop-color="#EFCA3B"/>
<stop offset="0.4608" stop-color="#E1B734"/>
<stop offset="0.7842" stop-color="#CB9727"/>
<stop offset="1" stop-color="#B97E1D"/>
</linearGradient>
<linearGradient id="paint1_linear_234_1158" x1="33.1119" y1="110.272" x2="26.1027" y2="110.272" gradientUnits="userSpaceOnUse">
<stop stop-color="#C58C28"/>
<stop offset="0.1126" stop-color="#CD972C"/>
<stop offset="0.4784" stop-color="#E2B736"/>
<stop offset="0.7873" stop-color="#EFCA3C"/>
<stop offset="1" stop-color="#F4D13E"/>
</linearGradient>
<linearGradient id="paint2_linear_234_1158" x1="43.2457" y1="106.599" x2="36.2367" y2="106.599" gradientUnits="userSpaceOnUse">
<stop stop-color="#C58C28"/>
<stop offset="0.1126" stop-color="#CD972C"/>
<stop offset="0.4784" stop-color="#E2B736"/>
<stop offset="0.7873" stop-color="#EFCA3C"/>
<stop offset="1" stop-color="#F4D13E"/>
</linearGradient>
<linearGradient id="paint3_linear_234_1158" x1="54.1656" y1="102.646" x2="47.1543" y2="102.646" gradientUnits="userSpaceOnUse">
<stop stop-color="#C58C28"/>
<stop offset="0.1126" stop-color="#CD972C"/>
<stop offset="0.4784" stop-color="#E2B736"/>
<stop offset="0.7873" stop-color="#EFCA3C"/>
<stop offset="1" stop-color="#F4D13E"/>
</linearGradient>
<linearGradient id="paint4_linear_234_1158" x1="204.559" y1="143.168" x2="204.559" y2="82.695" gradientUnits="userSpaceOnUse">
<stop stop-color="#B97E1D"/>
<stop offset="0.2158" stop-color="#CB9727"/>
<stop offset="0.5392" stop-color="#E1B734"/>
<stop offset="0.8122" stop-color="#EFCA3B"/>
<stop offset="1" stop-color="#F4D13E"/>
</linearGradient>
<linearGradient id="paint5_linear_234_1158" x1="194.408" y1="139.957" x2="194.408" y2="77.1107" gradientUnits="userSpaceOnUse">
<stop stop-color="#B97E1D"/>
<stop offset="0.2158" stop-color="#CB9727"/>
<stop offset="0.5392" stop-color="#E1B734"/>
<stop offset="0.8122" stop-color="#EFCA3B"/>
<stop offset="1" stop-color="#F4D13E"/>
</linearGradient>
<linearGradient id="paint6_linear_234_1158" x1="183.5" y1="139.447" x2="183.5" y2="71.2041" gradientUnits="userSpaceOnUse">
<stop stop-color="#B97E1D"/>
<stop offset="0.2158" stop-color="#CB9727"/>
<stop offset="0.5392" stop-color="#E1B734"/>
<stop offset="0.8122" stop-color="#EFCA3B"/>
<stop offset="1" stop-color="#F4D13E"/>
</linearGradient>
<linearGradient id="paint7_linear_234_1158" x1="161.104" y1="80.3013" x2="168.122" y2="80.3013" gradientUnits="userSpaceOnUse">
<stop stop-color="#C58C28"/>
<stop offset="0.1126" stop-color="#CD972C"/>
<stop offset="0.4784" stop-color="#E2B736"/>
<stop offset="0.7873" stop-color="#EFCA3C"/>
<stop offset="1" stop-color="#F4D13E"/>
</linearGradient>
<linearGradient id="paint8_linear_234_1158" x1="149.801" y1="76.1744" x2="156.819" y2="76.1744" gradientUnits="userSpaceOnUse">
<stop stop-color="#C58C28"/>
<stop offset="0.1126" stop-color="#CD972C"/>
<stop offset="0.4784" stop-color="#E2B736"/>
<stop offset="0.7873" stop-color="#EFCA3C"/>
<stop offset="1" stop-color="#F4D13E"/>
</linearGradient>
<linearGradient id="paint9_linear_234_1158" x1="138.5" y1="72.8716" x2="145.515" y2="72.8716" gradientUnits="userSpaceOnUse">
<stop stop-color="#C58C28"/>
<stop offset="0.1126" stop-color="#CD972C"/>
<stop offset="0.4784" stop-color="#E2B736"/>
<stop offset="0.7873" stop-color="#EFCA3C"/>
<stop offset="1" stop-color="#F4D13E"/>
</linearGradient>
<linearGradient id="paint10_linear_234_1158" x1="123.417" y1="100.644" x2="116.408" y2="100.644" gradientUnits="userSpaceOnUse">
<stop stop-color="#C58C28"/>
<stop offset="0.1126" stop-color="#CD972C"/>
<stop offset="0.4784" stop-color="#E2B736"/>
<stop offset="0.7873" stop-color="#EFCA3C"/>
<stop offset="1" stop-color="#F4D13E"/>
</linearGradient>
<linearGradient id="paint11_linear_234_1158" x1="133.55" y1="97.8484" x2="126.536" y2="97.8484" gradientUnits="userSpaceOnUse">
<stop stop-color="#C58C28"/>
<stop offset="0.1126" stop-color="#CD972C"/>
<stop offset="0.4784" stop-color="#E2B736"/>
<stop offset="0.7873" stop-color="#EFCA3C"/>
<stop offset="1" stop-color="#F4D13E"/>
</linearGradient>
<linearGradient id="paint12_linear_234_1158" x1="237.792" y1="144.316" x2="0.129192" y2="144.316" gradientUnits="userSpaceOnUse">
<stop stop-color="#B97E1D"/>
<stop offset="0.2158" stop-color="#CB9727"/>
<stop offset="0.5392" stop-color="#E1B734"/>
<stop offset="0.8122" stop-color="#EFCA3B"/>
<stop offset="1" stop-color="#F4D13E"/>
</linearGradient>
<clipPath id="clip0_234_1158">
<rect width="755" height="153" fill="white"/>
</clipPath>
</defs>
</svg>
